<?xml version="1.0" encoding="UTF-8" standalone="no"?>
<!-- Generator: Adobe Illustrator 24.0.2, SVG Export Plug-In . SVG Version: 6.00 Build 0)  -->

<svg
   version="1.1"
   x="0px"
   y="0px"
   viewBox="0 0 1544 500"
   style="enable-background:new 0 0 1544 500;"
   xml:space="preserve"
   id="svg11"
   sodipodi:docname="banner.svg"
   xmlns:inkscape="http://www.inkscape.org/namespaces/inkscape"
   xmlns:sodipodi="http://sodipodi.sourceforge.net/DTD/sodipodi-0.dtd"
   xmlns="http://www.w3.org/2000/svg"
   xmlns:svg="http://www.w3.org/2000/svg"><defs
   id="defs11" /><sodipodi:namedview
   id="namedview11"
   pagecolor="#ffffff"
   bordercolor="#000000"
   borderopacity="0.25"
   inkscape:showpageshadow="2"
   inkscape:pageopacity="0.0"
   inkscape:pagecheckerboard="0"
   inkscape:deskcolor="#d1d1d1" />
<style
   type="text/css"
   id="style1">
	.st0{fill:#0073AA;}
	.st1{fill:#1E1E1E;}
	.st2{fill:#FFFFFF;}
	.st3{font-family:'Outfit SemiBold';}
	.st4{font-size:72px;}
	.st5{font-family:'Outfit Light';}
	.st6{font-size:32px;}
	.st7{font-family:'Outfit Bold';}
	.st8{font-size:18px;}
</style>
<path
   id="rect1"
   class="st0"
   style="fill:#0073aa"
   d="M 0,0 H 1544 V 500 H 0 Z" />
<path
   class="st1"
   d="M683.3,360H570c-11,0-20-9-20-20l0,0c0-11,9-20,20-20h113.3c11,0,20,9,20,20l0,0C703.3,351,694.4,360,683.3,360  z"
   id="path1" />
<path
   class="st1"
   d="M837.4,360h-89.2c-11,0-20-9-20-20l0,0c0-11,9-20,20-20h89.2c11,0,20,9,20,20l0,0  C857.4,351,848.5,360,837.4,360z"
   id="path2" />
<path
   class="st1"
   d="M1103.7,360H900.6c-10.6,0-19.3-9-19.3-20l0,0c0-11,8.7-20,19.3-20h203.2c10.6,0,19.3,9,19.3,20l0,0  C1123,351,1114.3,360,1103.7,360z"
   id="path3" />
<path
   d="m 5.184,0 v -50.616 h 6.84 l 2.952,9.792 V 0 Z m 34.992,0 -30.024,-38.88 1.872,-11.736 30.024,38.88 z m 0,0 -2.808,-9.504 v -41.112 h 9.864 V 0 Z m 30.887948,0.72 q -4.752,0 -8.568,-2.376 -3.816,-2.376 -5.976,-6.48 -2.16,-4.104 -2.16,-9.216 0,-5.184 2.16,-9.288 2.16,-4.104 5.976,-6.48 3.816,-2.376 8.568,-2.376 3.744,0 6.696,1.512 2.952,1.512 4.68,4.248 1.8,2.664 1.944,6.048 v 12.528 q -0.144,3.456 -1.944,6.12 -1.728,2.664 -4.68,4.248 -2.952,1.512 -6.696,1.512 z m 1.728,-8.712 q 3.96,0 6.408,-2.592 2.448,-2.664 2.448,-6.84 0,-2.736 -1.152,-4.824 -1.08,-2.16 -3.096,-3.312 -1.944,-1.224 -4.608,-1.224 -2.592,0 -4.608,1.224 -1.944,1.152 -3.096,3.312 -1.08,2.088 -1.08,4.824 0,2.808 1.08,4.968 1.152,2.088 3.096,3.312 2.016,1.152 4.608,1.152 z m 8.352,7.992 v -9.36 l 1.512,-8.496 -1.512,-8.352 v -8.568 h 9.36 V 0 Z M 103.9679,0 v -49.248 h 9.432 V 0 Z m -8.135999,-26.496 v -8.28 H 121.5359 v 8.28 z M 126.8639,0 v -34.776 h 9.504 V 0 Z m 4.752,-40.392 q -2.304,0 -3.816,-1.512 -1.512,-1.584 -1.512,-3.888 0,-2.232 1.512,-3.816 1.512,-1.584 3.816,-1.584 2.376,0 3.816,1.584 1.512,1.584 1.512,3.816 0,2.304 -1.512,3.888 -1.44,1.512 -3.816,1.512 z M 156.02384,0 l -15.336,-34.776 h 10.368 l 11.016,28.656 h -5.112 l 11.088,-28.656 h 10.008 L 162.79184,0 Z m 41.97605,0.72 q -5.472,0 -9.72,-2.304 -4.248,-2.376 -6.768,-6.48 -2.448,-4.104 -2.448,-9.36 0,-5.184 2.376,-9.216 2.448,-4.104 6.624,-6.48 4.176,-2.448 9.288,-2.448 5.04,0 8.856,2.304 3.888,2.232 6.048,6.192 2.232,3.888 2.232,8.856 0,0.936 -0.144,1.944 -0.072,0.936 -0.36,2.16 l -29.232,0.072 v -7.056 l 24.84,-0.072 -3.816,2.952 q -0.144,-3.096 -1.152,-5.184 -0.936,-2.088 -2.808,-3.168 -1.8,-1.152 -4.464,-1.152 -2.808,0 -4.896,1.296 -2.088,1.224 -3.24,3.528 -1.08,2.232 -1.08,5.328 0,3.168 1.152,5.544 1.224,2.304 3.456,3.6 2.232,1.224 5.184,1.224 2.664,0 4.824,-0.864 2.16,-0.936 3.744,-2.736 l 5.544,5.544 q -2.52,2.952 -6.192,4.464 -3.6,1.512 -7.848,1.512 z M 242.5679,0 v -7.992 h 13.176 q 3.528,0 5.472,-2.16 2.016,-2.16 2.016,-5.112 0,-2.016 -0.864,-3.672 -0.864,-1.656 -2.592,-2.592 -1.656,-1.008 -4.032,-1.008 h -13.176 v -7.92 h 12.096 q 3.024,0 4.824,-1.512 1.872,-1.512 1.872,-4.536 0,-3.096 -1.872,-4.608 -1.8,-1.512 -4.824,-1.512 h -12.096 v -7.992 h 13.248 q 5.04,0 8.424,1.872 3.456,1.8 5.184,4.824 1.728,2.952 1.728,6.48 0,4.32 -2.664,7.488 -2.592,3.096 -7.632,4.608 l 0.432,-3.168 q 5.616,1.584 8.64,5.256 3.096,3.6 3.096,8.712 0,4.032 -2.016,7.344 -1.944,3.24 -5.76,5.256 Q 261.5039,0 256.1039,0 Z m -7.2,0 v -50.616 h 9.72 V 0 Z m 44.42404,0 v -52.056 h 9.432 V 0 Z m 34.12796,0.72 q -5.256,0 -9.504,-2.376 -4.176,-2.448 -6.696,-6.552 -2.448,-4.176 -2.448,-9.288 0,-5.112 2.448,-9.144 2.448,-4.104 6.696,-6.48 4.248,-2.448 9.432,-2.448 5.328,0 9.504,2.448 4.248,2.376 6.696,6.48 2.448,4.032 2.448,9.144 0,5.112 -2.448,9.288 -2.448,4.104 -6.696,6.552 -4.176,2.376 -9.432,2.376 z m -0.072,-8.784 q 2.664,0 4.68,-1.152 2.088,-1.224 3.168,-3.312 1.152,-2.16 1.152,-4.896 0,-2.736 -1.152,-4.824 -1.152,-2.088 -3.168,-3.24 -2.016,-1.224 -4.68,-1.224 -2.592,0 -4.608,1.224 -2.016,1.152 -3.168,3.24 -1.152,2.088 -1.152,4.824 0,2.736 1.152,4.896 1.152,2.088 3.168,3.312 2.016,1.152 4.608,1.152 z m 41.11202,8.784 q -5.328,0 -9.576,-2.376 -4.248,-2.376 -6.696,-6.48 -2.448,-4.104 -2.448,-9.216 0,-5.184 2.448,-9.288 2.448,-4.104 6.696,-6.48 4.32,-2.448 9.576,-2.448 4.104,0 7.56,1.512 3.456,1.512 5.976,4.32 l -6.048,6.12 q -1.368,-1.512 -3.312,-2.304 -1.872,-0.792 -4.176,-0.792 -2.592,0 -4.68,1.224 -2.016,1.152 -3.24,3.24 -1.152,2.016 -1.152,4.824 0,2.736 1.152,4.896 1.224,2.088 3.24,3.312 2.088,1.152 4.68,1.152 2.376,0 4.248,-0.792 1.944,-0.864 3.312,-2.448 l 6.12,6.12 q -2.664,2.88 -6.12,4.392 -3.456,1.512 -7.56,1.512 z M 396.14399,0 l -13.464,-17.928 13.392,-16.848 h 10.872 l -15.696,19.008 0.36,-4.608 16.056,20.376 z m -22.176,0 v -52.056 h 9.432 V 0 Z m 47.952,0.792 q -2.952,0 -5.832,-0.792 -2.808,-0.792 -5.184,-2.16 -2.376,-1.44 -4.104,-3.456 l 5.616,-5.688 q 1.8,2.016 4.176,3.024 2.376,1.008 5.256,1.008 2.304,0 3.456,-0.648 1.224,-0.648 1.224,-1.944 0,-1.44 -1.296,-2.232 -1.224,-0.792 -3.24,-1.296 -2.016,-0.576 -4.248,-1.224 -2.16,-0.72 -4.176,-1.8 -2.016,-1.152 -3.312,-3.096 -1.224,-2.016 -1.224,-5.184 0,-3.312 1.584,-5.76 1.656,-2.448 4.68,-3.816 3.024,-1.368 7.128,-1.368 4.32,0 7.776,1.512 3.528,1.512 5.832,4.536 l -5.688,5.688 q -1.584,-1.944 -3.6,-2.808 -1.944,-0.864 -4.248,-0.864 -2.088,0 -3.24,0.648 -1.08,0.648 -1.08,1.8 0,1.296 1.224,2.016 1.296,0.72 3.312,1.296 2.016,0.504 4.176,1.224 2.232,0.648 4.176,1.872 2.016,1.224 3.24,3.24 1.296,2.016 1.296,5.184 0,5.112 -3.672,8.136 -3.672,2.952 -10.008,2.952 z m 58.536,-0.072 q -5.544,0 -10.296,-1.944 -4.752,-2.016 -8.352,-5.544 -3.528,-3.6 -5.472,-8.352 -1.872,-4.752 -1.872,-10.224 0,-5.472 1.872,-10.224 1.944,-4.752 5.472,-8.28 3.6,-3.528 8.28,-5.544 4.752,-2.016 10.368,-2.016 6.048,0 10.656,2.016 4.608,1.944 8.136,5.4 l -6.624,6.624 q -2.088,-2.304 -5.112,-3.6 -3.024,-1.296 -7.056,-1.296 -3.528,0 -6.48,1.224 -2.88,1.152 -5.04,3.456 -2.16,2.232 -3.312,5.4 -1.152,3.096 -1.152,6.84 0,3.816 1.152,6.912 1.152,3.096 3.312,5.4 2.16,2.232 5.04,3.456 2.952,1.224 6.48,1.224 4.248,0 7.272,-1.296 3.096,-1.296 5.184,-3.672 l 6.624,6.624 q -3.528,3.528 -8.208,5.472 -4.68,1.944 -10.872,1.944 z m 38.5921,0 q -4.752,0 -8.568,-2.376 -3.816,-2.376 -5.976,-6.48 -2.16,-4.104 -2.16,-9.216 0,-5.184 2.16,-9.288 2.16,-4.104 5.976,-6.48 3.816,-2.376 8.568,-2.376 3.744,0 6.696,1.512 2.952,1.512 4.68,4.248 1.8,2.664 1.944,6.048 v 12.528 q -0.144,3.456 -1.944,6.12 -1.728,2.664 -4.68,4.248 -2.952,1.512 -6.696,1.512 z m 1.728,-8.712 q 3.96,0 6.408,-2.592 2.448,-2.664 2.448,-6.84 0,-2.736 -1.152,-4.824 -1.08,-2.16 -3.096,-3.312 -1.944,-1.224 -4.608,-1.224 -2.592,0 -4.608,1.224 -1.944,1.152 -3.096,3.312 -1.08,2.088 -1.08,4.824 0,2.808 1.08,4.968 1.152,2.088 3.096,3.312 2.016,1.152 4.608,1.152 z m 8.352,7.992 v -9.36 l 1.512,-8.496 -1.512,-8.352 v -8.568 h 9.36 V 0 Z m 17.71197,0 v -34.776 h 9.432 V 0 Z m 9.432,-19.224 -3.672,-2.448 q 0.648,-6.408 3.744,-10.08 3.096,-3.744 8.928,-3.744 2.52,0 4.536,0.864 2.016,0.792 3.672,2.664 l -5.904,6.768 q -0.792,-0.864 -1.944,-1.296 -1.08,-0.432 -2.52,-0.432 -3.024,0 -4.968,1.944 -1.872,1.872 -1.872,5.76 z M 592.20005,0.72 q -5.256,0 -9.504,-2.376 -4.176,-2.448 -6.696,-6.552 -2.448,-4.176 -2.448,-9.288 0,-5.112 2.448,-9.144 2.448,-4.104 6.696,-6.48 4.248,-2.448 9.432,-2.448 5.328,0 9.504,2.448 4.248,2.376 6.696,6.48 2.448,4.032 2.448,9.144 0,5.112 -2.448,9.288 -2.448,4.104 -6.696,6.552 -4.176,2.376 -9.432,2.376 z m -0.072,-8.784 q 2.664,0 4.68,-1.152 2.088,-1.224 3.168,-3.312 1.152,-2.16 1.152,-4.896 0,-2.736 -1.152,-4.824 -1.152,-2.088 -3.168,-3.24 -2.016,-1.224 -4.68,-1.224 -2.592,0 -4.608,1.224 -2.016,1.152 -3.168,3.24 -1.152,2.088 -1.152,4.824 0,2.736 1.152,4.896 1.152,2.088 3.168,3.312 2.016,1.152 4.608,1.152 z m 39.52802,8.784 q -4.608,0 -8.208,-1.944 -3.528,-1.944 -5.544,-5.4 -2.016,-3.456 -2.016,-7.992 v -20.16 h 9.504 v 19.944 q 0,2.16 0.72,3.744 0.72,1.512 2.16,2.304 1.44,0.792 3.384,0.792 2.952,0 4.608,-1.8 1.656,-1.8 1.656,-5.04 v -19.944 h 9.432 v 20.16 q 0,4.608 -2.016,8.064 -1.944,3.456 -5.544,5.4 -3.528,1.872 -8.136,1.872 z m 35.13599,0.072 q -2.952,0 -5.832,-0.792 -2.808,-0.792 -5.184,-2.16 -2.376,-1.44 -4.104,-3.456 l 5.616,-5.688 q 1.8,2.016 4.176,3.024 2.376,1.008 5.256,1.008 2.304,0 3.456,-0.648 1.224,-0.648 1.224,-1.944 0,-1.44 -1.296,-2.232 -1.224,-0.792 -3.24,-1.296 -2.016,-0.576 -4.248,-1.224 -2.16,-0.72 -4.176,-1.8 -2.016,-1.152 -3.312,-3.096 -1.224,-2.016 -1.224,-5.184 0,-3.312 1.584,-5.76 1.656,-2.448 4.68,-3.816 3.024,-1.368 7.128,-1.368 4.32,0 7.776,1.512 3.528,1.512 5.832,4.536 l -5.688,5.688 q -1.584,-1.944 -3.6,-2.808 -1.944,-0.864 -4.248,-0.864 -2.088,0 -3.24,0.648 -1.08,0.648 -1.08,1.8 0,1.296 1.224,2.016 1.296,0.72 3.312,1.296 2.016,0.504 4.176,1.224 2.232,0.648 4.176,1.872 2.016,1.224 3.24,3.24 1.296,2.016 1.296,5.184 0,5.112 -3.672,8.136 -3.672,2.952 -10.008,2.952 z M 703.44008,0.72 q -5.472,0 -9.72,-2.304 -4.248,-2.376 -6.768,-6.48 -2.448,-4.104 -2.448,-9.36 0,-5.184 2.376,-9.216 2.448,-4.104 6.624,-6.48 4.176,-2.448 9.288,-2.448 5.04,0 8.856,2.304 3.888,2.232 6.048,6.192 2.232,3.888 2.232,8.856 0,0.936 -0.144,1.944 -0.072,0.936 -0.36,2.16 l -29.232,0.072 v -7.056 l 24.84,-0.072 -3.816,2.952 q -0.144,-3.096 -1.152,-5.184 -0.936,-2.088 -2.808,-3.168 -1.8,-1.152 -4.464,-1.152 -2.808,0 -4.896,1.296 -2.088,1.224 -3.24,3.528 -1.08,2.232 -1.08,5.328 0,3.168 1.152,5.544 1.224,2.304 3.456,3.6 2.232,1.224 5.184,1.224 2.664,0 4.824,-0.864 2.16,-0.936 3.744,-2.736 l 5.544,5.544 q -2.52,2.952 -6.192,4.464 -3.6,1.512 -7.848,1.512 z M 725.76011,0 v -52.056 h 9.432 V 0 Z"
   id="text3"
   class="st2 st3 st4"
   style="font-size:72px;font-family:'Outfit SemiBold';fill:#ffffff"
   transform="matrix(1 0 0 1 550 220)"
   aria-label="Native Blocks Carousel" />
<path
   d="m 8.928,0 v -21.408 h 2.368 V 0 Z M 1.184,-19.872 v -2.144 H 19.04 v 2.144 z M 18.943997,0 v -15.04 h 2.24 V 0 Z m 2.24,-8.768 -0.928,-0.416 q 0,-2.848 1.376,-4.512 1.408,-1.664 3.84,-1.664 1.12,0 2.048,0.416 0.928,0.384 1.728,1.248 l -1.472,1.568 q -0.544,-0.608 -1.216,-0.864 -0.64,-0.256 -1.472,-0.256 -1.728,0 -2.816,1.152 -1.088,1.12 -1.088,3.328 z M 37.63197,0.32 q -2.144,0 -3.84,-1.024 -1.696,-1.056 -2.688,-2.816 -0.96,-1.76 -0.96,-3.968 0,-2.24 0.96,-4 0.992,-1.792 2.688,-2.816 1.696,-1.056 3.808,-1.056 1.728,0 3.072,0.704 1.376,0.672 2.208,1.92 0.864,1.216 1.056,2.848 v 4.704 q -0.192,1.632 -1.056,2.88 -0.832,1.248 -2.208,1.952 -1.344,0.672 -3.04,0.672 z m 0.352,-2.144 q 2.336,0 3.744,-1.568 1.44,-1.568 1.44,-4.128 0,-1.696 -0.672,-2.976 -0.64,-1.312 -1.824,-2.016 -1.152,-0.736 -2.72,-0.736 -1.6,0 -2.848,0.736 -1.216,0.736 -1.952,2.048 -0.704,1.28 -0.704,2.944 0,1.664 0.704,2.944 0.736,1.28 1.984,2.016 1.248,0.736 2.848,0.736 z M 43.03997,0 v -4.032 l 0.448,-3.712 -0.448,-3.616 v -3.68 h 2.24 V 0 Z m 17.727971,0 v -8.832 q 0,-1.984 -1.184,-3.2 -1.152,-1.248 -3.072,-1.248 -1.312,0 -2.304,0.576 -0.992,0.576 -1.568,1.568 -0.576,0.992 -0.576,2.272 l -1.024,-0.576 q 0,-1.696 0.8,-3.04 0.8,-1.344 2.144,-2.112 1.376,-0.768 3.136,-0.768 1.728,0 3.072,0.832 1.344,0.832 2.08,2.24 0.768,1.408 0.768,3.072 V 0 Z m -10.944,0 v -15.04 h 2.24 V 0 Z m 22.01602,0.32 q -1.216,0 -2.336,-0.32 -1.12,-0.352 -2.048,-0.96 -0.896,-0.608 -1.568,-1.44 l 1.44,-1.472 q 0.896,1.088 2.016,1.632 1.152,0.512 2.56,0.512 1.504,0 2.336,-0.576 0.864,-0.576 0.864,-1.6 0,-0.96 -0.608,-1.504 -0.608,-0.544 -1.568,-0.864 -0.928,-0.32 -1.984,-0.608 -1.056,-0.32 -2.016,-0.768 -0.96,-0.48 -1.568,-1.312 -0.576,-0.832 -0.576,-2.176 0,-1.28 0.608,-2.208 0.64,-0.96 1.792,-1.472 1.184,-0.544 2.784,-0.544 1.696,0 3.072,0.608 1.376,0.608 2.208,1.792 l -1.44,1.44 q -0.672,-0.864 -1.696,-1.312 -0.992,-0.48 -2.24,-0.48 -1.44,0 -2.208,0.576 -0.736,0.544 -0.736,1.44 0,0.864 0.608,1.376 0.608,0.48 1.536,0.8 0.96,0.288 2.016,0.608 1.056,0.288 2.016,0.8 0.96,0.48 1.536,1.344 0.608,0.832 0.608,2.272 0,2.016 -1.472,3.232 -1.44,1.184 -3.936,1.184 z M 83.007954,0 v -17.6 q 0,-1.568 0.672,-2.784 0.704,-1.216 1.92,-1.888 1.248,-0.704 2.816,-0.704 1.216,0 2.144,0.448 0.928,0.416 1.696,1.184 l -1.472,1.472 q -0.512,-0.512 -1.088,-0.736 -0.544,-0.256 -1.28,-0.256 -1.504,0 -2.336,0.896 -0.8,0.864 -0.8,2.432 V 0 Z m -3.776,-13.024 v -2.016 h 11.072 v 2.016 z M 99.263964,0.32 q -2.176,0 -3.968,-1.056 -1.76,-1.056 -2.816,-2.848 -1.024,-1.792 -1.024,-4 0,-2.176 1.024,-3.936 1.056,-1.76 2.816,-2.784 1.792,-1.056 3.968,-1.056 2.207996,0 3.967996,1.024 1.76,1.024 2.784,2.816 1.056,1.76 1.056,3.936 0,2.24 -1.056,4.032 -1.024,1.76 -2.784,2.816 -1.76,1.056 -3.967996,1.056 z m 0,-2.176 q 1.599996,0 2.815996,-0.736 1.248,-0.736 1.952,-2.048 0.736,-1.312 0.736,-2.944 0,-1.632 -0.736,-2.88 -0.704,-1.28 -1.952,-2.016 -1.216,-0.736 -2.815996,-0.736 -1.568,0 -2.816,0.736 -1.248,0.736 -1.952,2.016 -0.704,1.248 -0.704,2.88 0,1.664 0.704,2.976 0.704,1.28 1.952,2.016 1.248,0.736 2.816,0.736 z M 110.62399,0 v -15.04 h 2.24 V 0 Z m 2.24,-8.768 -0.928,-0.416 q 0,-2.848 1.376,-4.512 1.408,-1.664 3.84,-1.664 1.12,0 2.048,0.416 0.928,0.384 1.728,1.248 l -1.472,1.568 q -0.544,-0.608 -1.216,-0.864 -0.64,-0.256 -1.472,-0.256 -1.728,0 -2.816,1.152 -1.088,1.12 -1.088,3.328 z M 123.42398,0 v -15.04 h 2.24 V 0 Z m 10.336,0 v -9.216 q 0,-1.856 -1.12,-2.944 -1.12,-1.12 -2.816,-1.12 -1.152,0 -2.112,0.512 -0.928,0.48 -1.504,1.376 -0.544,0.896 -0.544,2.144 l -1.024,-0.416 q 0,-1.728 0.768,-3.008 0.768,-1.28 2.048,-1.984 1.312,-0.704 2.944,-0.704 1.6,0 2.848,0.704 1.28,0.704 2.016,1.984 0.768,1.28 0.768,3.04 V 0 Z m 10.368,0 v -9.216 q 0,-1.856 -1.12,-2.944 -1.12,-1.12 -2.848,-1.12 -1.12,0 -2.08,0.512 -0.928,0.48 -1.504,1.376 -0.544,0.896 -0.544,2.144 l -1.344,-0.416 q 0.096,-1.728 0.896,-3.008 0.832,-1.28 2.144,-1.984 1.344,-0.704 2.944,-0.704 1.6,0 2.88,0.704 1.312,0.704 2.048,1.984 0.768,1.28 0.768,3.04 V 0 Z m 19.87203,0.32 q -2.144,0 -3.84,-1.024 -1.696,-1.056 -2.688,-2.816 -0.96,-1.76 -0.96,-3.968 0,-2.24 0.96,-4 0.992,-1.792 2.688,-2.816 1.696,-1.056 3.808,-1.056 1.728,0 3.072,0.704 1.376,0.672 2.208,1.92 0.864,1.216 1.056,2.848 v 4.704 q -0.192,1.632 -1.056,2.88 -0.832,1.248 -2.208,1.952 -1.344,0.672 -3.04,0.672 z m 0.352,-2.144 q 2.336,0 3.744,-1.568 1.44,-1.568 1.44,-4.128 0,-1.696 -0.672,-2.976 -0.64,-1.312 -1.824,-2.016 -1.152,-0.736 -2.72,-0.736 -1.6,0 -2.848,0.736 -1.216,0.736 -1.952,2.048 -0.704,1.28 -0.704,2.944 0,1.664 0.704,2.944 0.736,1.28 1.984,2.016 1.248,0.736 2.848,0.736 z m 5.056,1.824 v -4.032 l 0.448,-3.712 -0.448,-3.616 v -3.68 h 2.24 V 0 Z m 17.72797,0 v -8.832 q 0,-1.984 -1.184,-3.2 -1.152,-1.248 -3.072,-1.248 -1.312,0 -2.304,0.576 -0.992,0.576 -1.568,1.568 -0.576,0.992 -0.576,2.272 l -1.024,-0.576 q 0,-1.696 0.8,-3.04 0.8,-1.344 2.144,-2.112 1.376,-0.768 3.136,-0.768 1.728,0 3.072,0.832 1.344,0.832 2.08,2.24 0.768,1.408 0.768,3.072 V 0 Z m -10.944,0 v -15.04 h 2.24 V 0 Z M 198.624,0.064 192.032,-15.04 h 2.464 l 5.312,12.608 h -0.928 l 5.6,-12.608 h 2.496 l -7.072,15.104 z m -4.096,6.272 4.128,-8.544 1.248,2.272 -2.912,6.272 z M 224.57602,0.32 q -1.728,0 -3.104,-0.704 -1.376,-0.704 -2.272,-1.92 -0.864,-1.248 -1.056,-2.88 v -4.704 q 0.192,-1.664 1.088,-2.88 0.896,-1.248 2.272,-1.92 1.408,-0.672 3.072,-0.672 2.08,0 3.744,1.056 1.664,1.024 2.624,2.816 0.992,1.76 0.992,4 0,2.208 -0.96,3.968 -0.96,1.76 -2.656,2.816 -1.664,1.024 -3.744,1.024 z M 216.80002,0 v -22.656 h 2.24 v 11.296 l -0.448,3.616 0.448,3.712 V 0 Z m 7.392,-1.824 q 1.6,0 2.816,-0.704 1.216,-0.736 1.888,-2.016 0.704,-1.312 0.704,-2.976 0,-1.696 -0.704,-2.976 -0.672,-1.28 -1.888,-2.016 -1.216,-0.736 -2.784,-0.736 -1.568,0 -2.784,0.736 -1.184,0.736 -1.856,2.016 -0.672,1.28 -0.672,2.976 0,1.664 0.672,2.976 0.672,1.28 1.856,2.016 1.184,0.704 2.752,0.704 z M 235.51999,0 v -22.656 h 2.24 V 0 Z m 13.59999,0.32 q -2.176,0 -3.968,-1.056 -1.76,-1.056 -2.816,-2.848 -1.024,-1.792 -1.024,-4 0,-2.176 1.024,-3.936 1.056,-1.76 2.816,-2.784 1.792,-1.056 3.968,-1.056 2.208,0 3.968,1.024 1.76,1.024 2.784,2.816 1.056,1.76 1.056,3.936 0,2.24 -1.056,4.032 -1.024,1.76 -2.784,2.816 -1.76,1.056 -3.968,1.056 z m 0,-2.176 q 1.6,0 2.816,-0.736 1.248,-0.736 1.952,-2.048 0.736,-1.312 0.736,-2.944 0,-1.632 -0.736,-2.88 -0.704,-1.28 -1.952,-2.016 -1.216,-0.736 -2.816,-0.736 -1.568,0 -2.816,0.736 -1.248,0.736 -1.952,2.016 -0.704,1.248 -0.704,2.88 0,1.664 0.704,2.976 0.704,1.28 1.952,2.016 1.248,0.736 2.816,0.736 z m 18.20803,2.176 q -2.208,0 -4,-1.024 -1.76,-1.056 -2.816,-2.848 -1.024,-1.792 -1.024,-4 0,-2.208 1.024,-3.968 1.056,-1.792 2.816,-2.816 1.792,-1.024 4,-1.024 1.696,0 3.168,0.64 1.472,0.64 2.496,1.792 l -1.472,1.504 q -0.768,-0.864 -1.856,-1.312 -1.088,-0.48 -2.336,-0.48 -1.6,0 -2.848,0.736 -1.248,0.736 -1.952,2.016 -0.704,1.248 -0.704,2.912 0,1.632 0.704,2.944 0.704,1.28 1.952,2.016 1.248,0.736 2.848,0.736 1.28,0 2.368,-0.448 1.088,-0.48 1.856,-1.344 l 1.504,1.504 q -1.056,1.184 -2.56,1.824 -1.472,0.64 -3.168,0.64 z M 285.88798,0 l -7.68,-7.712 7.552,-7.328 h 2.784 l -8.224,7.904 0.096,-1.28 8.448,8.416 z m -9.696,0 v -22.656 h 2.24 V 0 Z m 22.36798,0 v -15.04 h 2.272 V 0 Z m 1.12,-18.304 q -0.64,0 -1.088,-0.448 -0.448,-0.48 -0.448,-1.12 0,-0.672 0.448,-1.12 0.448,-0.448 1.088,-0.448 0.704,0 1.12,0.448 0.448,0.448 0.448,1.12 0,0.64 -0.448,1.12 -0.416,0.448 -1.12,0.448 z M 316.31994,0 v -8.832 q 0,-1.984 -1.184,-3.2 -1.152,-1.248 -3.072,-1.248 -1.312,0 -2.304,0.576 -0.992,0.576 -1.568,1.568 -0.576,0.992 -0.576,2.272 l -1.024,-0.576 q 0,-1.696 0.8,-3.04 0.8,-1.344 2.144,-2.112 1.376,-0.768 3.136,-0.768 1.728,0 3.072,0.832 1.344,0.832 2.08,2.24 0.768,1.408 0.768,3.072 V 0 Z m -10.944,0 v -15.04 h 2.24 V 0 Z m 19.55201,0 v -21.376 h 2.24 V 0 Z m -3.808,-13.024 v -2.016 h 9.824 v 2.016 z m 19.168,13.344 q -2.176,0 -3.968,-1.056 -1.76,-1.056 -2.816,-2.848 -1.024,-1.792 -1.024,-4 0,-2.176 1.024,-3.936 1.056,-1.76 2.816,-2.784 1.792,-1.056 3.968,-1.056 2.208,0 3.968,1.024 1.76,1.024 2.784,2.816 1.056,1.76 1.056,3.936 0,2.24 -1.056,4.032 -1.024,1.76 -2.784,2.816 -1.76,1.056 -3.968,1.056 z m 0,-2.176 q 1.6,0 2.816,-0.736 1.248,-0.736 1.952,-2.048 0.736,-1.312 0.736,-2.944 0,-1.632 -0.736,-2.88 -0.704,-1.28 -1.952,-2.016 -1.216,-0.736 -2.816,-0.736 -1.568,0 -2.816,0.736 -1.248,0.736 -1.952,2.016 -0.704,1.248 -0.704,2.88 0,1.664 0.704,2.976 0.704,1.28 1.952,2.016 1.248,0.736 2.816,0.736 z m 24.76803,2.176 q -2.144,0 -3.84,-1.024 -1.696,-1.056 -2.688,-2.816 -0.96,-1.76 -0.96,-3.968 0,-2.24 0.96,-4 0.992,-1.792 2.688,-2.816 1.696,-1.056 3.808,-1.056 1.728,0 3.072,0.704 1.376,0.672 2.208,1.92 0.864,1.216 1.056,2.848 v 4.704 q -0.192,1.632 -1.056,2.88 -0.832,1.248 -2.208,1.952 -1.344,0.672 -3.04,0.672 z m 0.352,-2.144 q 2.336,0 3.744,-1.568 1.44,-1.568 1.44,-4.128 0,-1.696 -0.672,-2.976 -0.64,-1.312 -1.824,-2.016 -1.152,-0.736 -2.72,-0.736 -1.6,0 -2.848,0.736 -1.216,0.736 -1.952,2.048 -0.704,1.28 -0.704,2.944 0,1.664 0.704,2.944 0.736,1.28 1.984,2.016 1.248,0.736 2.848,0.736 z m 5.056,1.824 v -4.032 l 0.448,-3.712 -0.448,-3.616 v -3.68 h 2.24 V 0 Z m 13.66398,0 v -15.04 h 2.24 V 0 Z m 2.24,-8.768 -0.928,-0.416 q 0,-2.848 1.376,-4.512 1.408,-1.664 3.84,-1.664 1.12,0 2.048,0.416 0.928,0.384 1.728,1.248 l -1.472,1.568 q -0.544,-0.608 -1.216,-0.864 -0.64,-0.256 -1.472,-0.256 -1.728,0 -2.816,1.152 -1.088,1.12 -1.088,3.328 z m 16.86397,9.088 q -2.272,0 -4.064,-1.024 -1.792,-1.024 -2.848,-2.816 -1.024,-1.792 -1.024,-4.032 0,-2.208 1.024,-3.968 1.024,-1.792 2.784,-2.816 1.76,-1.024 3.936,-1.024 2.048,0 3.616,0.928 1.6,0.928 2.496,2.592 0.928,1.632 0.928,3.776 0,0.256 -0.032,0.608 -0.032,0.32 -0.128,0.768 h -13.024 v -1.92 h 11.808 l -0.8,0.704 q 0.032,-1.664 -0.576,-2.848 -0.576,-1.216 -1.696,-1.856 -1.088,-0.672 -2.656,-0.672 -1.632,0 -2.848,0.704 -1.216,0.704 -1.92,1.984 -0.672,1.248 -0.672,2.976 0,1.728 0.704,3.04 0.736,1.312 2.016,2.048 1.312,0.736 3.008,0.736 1.376,0 2.528,-0.48 1.152,-0.512 1.952,-1.504 l 1.44,1.472 q -1.056,1.248 -2.624,1.952 -1.536,0.672 -3.328,0.672 z m 14.88,0 q -1.216,0 -2.336,-0.32 -1.12,-0.352 -2.048,-0.96 -0.896,-0.608 -1.568,-1.44 l 1.44,-1.472 q 0.896,1.088 2.016,1.632 1.152,0.512 2.56,0.512 1.504,0 2.336,-0.576 0.864,-0.576 0.864,-1.6 0,-0.96 -0.608,-1.504 -0.608,-0.544 -1.568,-0.864 -0.928,-0.32 -1.984,-0.608 -1.056,-0.32 -2.016,-0.768 -0.96,-0.48 -1.568,-1.312 -0.576,-0.832 -0.576,-2.176 0,-1.28 0.608,-2.208 0.64,-0.96 1.792,-1.472 1.184,-0.544 2.784,-0.544 1.696,0 3.072,0.608 1.376,0.608 2.208,1.792 l -1.44,1.44 q -0.672,-0.864 -1.696,-1.312 -0.992,-0.48 -2.24,-0.48 -1.44,0 -2.208,0.576 -0.736,0.544 -0.736,1.44 0,0.864 0.608,1.376 0.608,0.48 1.536,0.8 0.96,0.288 2.016,0.608 1.056,0.288 2.016,0.8 0.96,0.48 1.536,1.344 0.608,0.832 0.608,2.272 0,2.016 -1.472,3.232 -1.44,1.184 -3.936,1.184 z m 16.736,0 q -1.728,0 -3.104,-0.704 -1.376,-0.704 -2.272,-1.92 -0.864,-1.248 -1.056,-2.88 v -4.704 q 0.192,-1.664 1.088,-2.88 0.896,-1.248 2.272,-1.92 1.408,-0.672 3.072,-0.672 2.08,0 3.744,1.056 1.664,1.024 2.624,2.816 0.992,1.76 0.992,4 0,2.208 -0.96,3.968 -0.96,1.76 -2.656,2.816 -1.664,1.024 -3.744,1.024 z m -7.776,6.016 V -15.04 h 2.24 v 3.84 l -0.448,3.648 0.448,3.68 V 6.336 Z m 7.392,-8.16 q 1.6,0 2.816,-0.704 1.216,-0.736 1.888,-2.016 0.704,-1.312 0.704,-2.976 0,-1.696 -0.704,-2.976 -0.672,-1.28 -1.888,-2.016 -1.216,-0.736 -2.784,-0.736 -1.568,0 -2.784,0.736 -1.184,0.736 -1.856,2.016 -0.672,1.28 -0.672,2.976 0,1.664 0.672,2.976 0.672,1.28 1.856,2.016 1.184,0.704 2.752,0.704 z M 452.6079,0.32 q -2.176,0 -3.968,-1.056 -1.76,-1.056 -2.816,-2.848 -1.024,-1.792 -1.024,-4 0,-2.176 1.024,-3.936 1.056,-1.76 2.816,-2.784 1.792,-1.056 3.968,-1.056 2.208,0 3.968,1.024 1.76,1.024 2.784,2.816 1.056,1.76 1.056,3.936 0,2.24 -1.056,4.032 -1.024,1.76 -2.784,2.816 -1.76,1.056 -3.968,1.056 z m 0,-2.176 q 1.6,0 2.816,-0.736 1.248,-0.736 1.952,-2.048 0.736,-1.312 0.736,-2.944 0,-1.632 -0.736,-2.88 -0.704,-1.28 -1.952,-2.016 -1.216,-0.736 -2.816,-0.736 -1.568,0 -2.816,0.736 -1.248,0.736 -1.952,2.016 -0.704,1.248 -0.704,2.88 0,1.664 0.704,2.976 0.704,1.28 1.952,2.016 1.248,0.736 2.816,0.736 z M 474.91192,0 v -8.832 q 0,-1.984 -1.184,-3.2 -1.152,-1.248 -3.072,-1.248 -1.312,0 -2.304,0.576 -0.992,0.576 -1.568,1.568 -0.576,0.992 -0.576,2.272 l -1.024,-0.576 q 0,-1.696 0.8,-3.04 0.8,-1.344 2.144,-2.112 1.376,-0.768 3.136,-0.768 1.728,0 3.072,0.832 1.344,0.832 2.08,2.24 0.768,1.408 0.768,3.072 V 0 Z m -10.944,0 v -15.04 h 2.24 V 0 Z m 22.01602,0.32 q -1.216,0 -2.336,-0.32 -1.12,-0.352 -2.048,-0.96 -0.896,-0.608 -1.568,-1.44 l 1.44,-1.472 q 0.896,1.088 2.016,1.632 1.152,0.512 2.56,0.512 1.504,0 2.336,-0.576 0.864,-0.576 0.864,-1.6 0,-0.96 -0.608,-1.504 -0.608,-0.544 -1.568,-0.864 -0.928,-0.32 -1.984,-0.608 -1.056,-0.32 -2.016,-0.768 -0.96,-0.48 -1.568,-1.312 -0.576,-0.832 -0.576,-2.176 0,-1.28 0.608,-2.208 0.64,-0.96 1.792,-1.472 1.184,-0.544 2.784,-0.544 1.696,0 3.072,0.608 1.376,0.608 2.208,1.792 l -1.44,1.44 q -0.672,-0.864 -1.696,-1.312 -0.992,-0.48 -2.24,-0.48 -1.44,0 -2.208,0.576 -0.736,0.544 -0.736,1.44 0,0.864 0.608,1.376 0.608,0.48 1.536,0.8 0.96,0.288 2.016,0.608 1.056,0.288 2.016,0.8 0.96,0.48 1.536,1.344 0.608,0.832 0.608,2.272 0,2.016 -1.472,3.232 -1.44,1.184 -3.936,1.184 z m 8.96,-0.32 v -15.04 h 2.272 V 0 Z m 1.12,-18.304 q -0.64,0 -1.088,-0.448 -0.448,-0.48 -0.448,-1.12 0,-0.672 0.448,-1.12 0.448,-0.448 1.088,-0.448 0.704,0 1.12,0.448 0.448,0.448 0.448,1.12 0,0.64 -0.448,1.12 -0.416,0.448 -1.12,0.448 z M 507.00792,0 l -6.944,-15.04 h 2.496 l 5.856,13.152 h -1.408 l 5.888,-13.152 h 2.432 L 508.31992,0 Z m 17.43995,0.32 q -2.272,0 -4.064,-1.024 -1.792,-1.024 -2.848,-2.816 -1.024,-1.792 -1.024,-4.032 0,-2.208 1.024,-3.968 1.024,-1.792 2.784,-2.816 1.76,-1.024 3.936,-1.024 2.048,0 3.616,0.928 1.6,0.928 2.496,2.592 0.928,1.632 0.928,3.776 0,0.256 -0.032,0.608 -0.032,0.32 -0.128,0.768 h -13.024 v -1.92 h 11.808 l -0.8,0.704 q 0.032,-1.664 -0.576,-2.848 -0.576,-1.216 -1.696,-1.856 -1.088,-0.672 -2.656,-0.672 -1.632,0 -2.848,0.704 -1.216,0.704 -1.92,1.984 -0.672,1.248 -0.672,2.976 0,1.728 0.704,3.04 0.736,1.312 2.016,2.048 1.312,0.736 3.008,0.736 1.376,0 2.528,-0.48 1.152,-0.512 1.952,-1.504 l 1.44,1.472 q -1.056,1.248 -2.624,1.952 -1.536,0.672 -3.328,0.672 z m 24.00001,0 q -2.208,0 -4,-1.024 -1.76,-1.056 -2.816,-2.848 -1.024,-1.792 -1.024,-4 0,-2.208 1.024,-3.968 1.056,-1.792 2.816,-2.816 1.792,-1.024 4,-1.024 1.696,0 3.168,0.64 1.472,0.64 2.496,1.792 l -1.472,1.504 q -0.768,-0.864 -1.856,-1.312 -1.088,-0.48 -2.336,-0.48 -1.6,0 -2.848,0.736 -1.248,0.736 -1.952,2.016 -0.704,1.248 -0.704,2.912 0,1.632 0.704,2.944 0.704,1.28 1.952,2.016 1.248,0.736 2.848,0.736 1.28,0 2.368,-0.448 1.088,-0.48 1.856,-1.344 l 1.504,1.504 q -1.056,1.184 -2.56,1.824 -1.472,0.64 -3.168,0.64 z m 15.10395,0 q -2.144,0 -3.84,-1.024 -1.696,-1.056 -2.688,-2.816 -0.96,-1.76 -0.96,-3.968 0,-2.24 0.96,-4 0.992,-1.792 2.688,-2.816 1.696,-1.056 3.808,-1.056 1.728,0 3.072,0.704 1.376,0.672 2.208,1.92 0.864,1.216 1.056,2.848 v 4.704 q -0.192,1.632 -1.056,2.88 -0.832,1.248 -2.208,1.952 -1.344,0.672 -3.04,0.672 z m 0.352,-2.144 q 2.336,0 3.744,-1.568 1.44,-1.568 1.44,-4.128 0,-1.696 -0.672,-2.976 -0.64,-1.312 -1.824,-2.016 -1.152,-0.736 -2.72,-0.736 -1.6,0 -2.848,0.736 -1.216,0.736 -1.952,2.048 -0.704,1.28 -0.704,2.944 0,1.664 0.704,2.944 0.736,1.28 1.984,2.016 1.248,0.736 2.848,0.736 z m 5.056,1.824 v -4.032 l 0.448,-3.712 -0.448,-3.616 v -3.68 h 2.24 V 0 Z m 6.78397,0 v -15.04 h 2.24 V 0 Z m 2.24,-8.768 -0.928,-0.416 q 0,-2.848 1.376,-4.512 1.408,-1.664 3.84,-1.664 1.12,0 2.048,0.416 0.928,0.384 1.728,1.248 l -1.472,1.568 q -0.544,-0.608 -1.216,-0.864 -0.64,-0.256 -1.472,-0.256 -1.728,0 -2.816,1.152 -1.088,1.12 -1.088,3.328 z m 16.73597,9.088 q -2.176,0 -3.968,-1.056 -1.76,-1.056 -2.816,-2.848 -1.024,-1.792 -1.024,-4 0,-2.176 1.024,-3.936 1.056,-1.76 2.816,-2.784 1.792,-1.056 3.968,-1.056 2.208,0 3.968,1.024 1.76,1.024 2.784,2.816 1.056,1.76 1.056,3.936 0,2.24 -1.056,4.032 -1.024,1.76 -2.784,2.816 -1.76,1.056 -3.968,1.056 z m 0,-2.176 q 1.6,0 2.816,-0.736 1.248,-0.736 1.952,-2.048 0.736,-1.312 0.736,-2.944 0,-1.632 -0.736,-2.88 -0.704,-1.28 -1.952,-2.016 -1.216,-0.736 -2.816,-0.736 -1.568,0 -2.816,0.736 -1.248,0.736 -1.952,2.016 -0.704,1.248 -0.704,2.88 0,1.664 0.704,2.976 0.704,1.28 1.952,2.016 1.248,0.736 2.816,0.736 z M 612.0318,0.32 q -1.824,0 -3.264,-0.832 -1.44,-0.864 -2.272,-2.336 -0.8,-1.472 -0.8,-3.456 v -8.736 h 2.272 v 8.64 q 0,1.376 0.48,2.4 0.512,1.024 1.44,1.6 0.928,0.576 2.144,0.576 1.888,0 2.976,-1.248 1.12,-1.248 1.12,-3.328 v -8.64 h 2.24 v 8.736 q 0,1.952 -0.8,3.456 -0.8,1.504 -2.24,2.336 -1.44,0.832 -3.296,0.832 z m 15.13598,0 q -1.216,0 -2.336,-0.32 -1.12,-0.352 -2.048,-0.96 -0.896,-0.608 -1.568,-1.44 l 1.44,-1.472 q 0.896,1.088 2.016,1.632 1.152,0.512 2.56,0.512 1.504,0 2.336,-0.576 0.864,-0.576 0.864,-1.6 0,-0.96 -0.608,-1.504 -0.608,-0.544 -1.568,-0.864 -0.928,-0.32 -1.984,-0.608 -1.056,-0.32 -2.016,-0.768 -0.96,-0.48 -1.568,-1.312 -0.576,-0.832 -0.576,-2.176 0,-1.28 0.608,-2.208 0.64,-0.96 1.792,-1.472 1.184,-0.544 2.784,-0.544 1.696,0 3.072,0.608 1.376,0.608 2.208,1.792 l -1.44,1.44 q -0.672,-0.864 -1.696,-1.312 -0.992,-0.48 -2.24,-0.48 -1.44,0 -2.208,0.576 -0.736,0.544 -0.736,1.44 0,0.864 0.608,1.376 0.608,0.48 1.536,0.8 0.96,0.288 2.016,0.608 1.056,0.288 2.016,0.8 0.96,0.48 1.536,1.344 0.608,0.832 0.608,2.272 0,2.016 -1.472,3.232 -1.44,1.184 -3.936,1.184 z m 15.90399,0 q -2.272,0 -4.064,-1.024 -1.792,-1.024 -2.848,-2.816 -1.024,-1.792 -1.024,-4.032 0,-2.208 1.024,-3.968 1.024,-1.792 2.784,-2.816 1.76,-1.024 3.936,-1.024 2.048,0 3.616,0.928 1.6,0.928 2.496,2.592 0.928,1.632 0.928,3.776 0,0.256 -0.032,0.608 -0.032,0.32 -0.128,0.768 h -13.024 v -1.92 h 11.808 l -0.8,0.704 q 0.032,-1.664 -0.576,-2.848 -0.576,-1.216 -1.696,-1.856 -1.088,-0.672 -2.656,-0.672 -1.632,0 -2.848,0.704 -1.216,0.704 -1.92,1.984 -0.672,1.248 -0.672,2.976 0,1.728 0.704,3.04 0.736,1.312 2.016,2.048 1.312,0.736 3.008,0.736 1.376,0 2.528,-0.48 1.152,-0.512 1.952,-1.504 l 1.44,1.472 q -1.056,1.248 -2.624,1.952 -1.536,0.672 -3.328,0.672 z M 653.34378,0 v -22.656 h 2.24 V 0 Z"
   id="text4"
   class="st2 st5 st6"
   style="font-size:32px;font-family:'Outfit Light';fill:#ffffff"
   transform="matrix(1 0 0 1 550 280)"
   aria-label="Transform any block into a responsive carousel" />
<path
   d="m 10.318359,-9.1318359 q 0,0.8701171 -0.307617,1.6171875 -0.2988279,0.7382812 -0.8437498,1.2832031 -0.6767578,0.6767578 -1.5996094,1.0195312 -0.9228516,0.3339844 -2.3291016,0.3339844 H 3.4980469 V 0 H 1.7578125 v -13.086914 h 3.5507812 q 1.1777344,0 1.9951172,0.202148 0.8173829,0.19336 1.4501954,0.615235 0.7470703,0.500976 1.1513671,1.248047 0.4130856,0.74707 0.4130856,1.8896481 z m -1.8105465,0.043945 q 0,-0.6767578 -0.2373047,-1.1777344 -0.2373047,-0.500977 -0.7207031,-0.817383 -0.421875,-0.272461 -0.9667969,-0.386719 -0.5361328,-0.123046 -1.3623047,-0.123046 H 3.4980469 v 5.2294918 h 1.4677734 q 1.0546875,0 1.7138672,-0.1845704 0.6591797,-0.1933593 1.0722656,-0.6064453 0.413086,-0.421875 0.5800782,-0.8876953 0.1757812,-0.4658203 0.1757812,-1.0458984 z m 13.9570315,3.8320312 q 0,1.4238281 -0.316407,2.4873047 -0.307617,1.0546875 -1.019531,1.7578125 -0.676758,0.66796876 -1.582031,0.97558595 -0.905273,0.30761719 -2.109375,0.30761719 -1.230469,0 -2.144531,-0.32519531 -0.914063,-0.32519532 -1.538086,-0.95800783 -0.711914,-0.7207031 -1.02832,-1.7402344 -0.307618,-1.0195312 -0.307618,-2.5048828 v -7.8310546 h 1.740235 v 7.9189453 q 0,1.0634765 0.140625,1.6787109 0.149414,0.6152344 0.492187,1.1162109 0.386719,0.5712891 1.045899,0.8613282 0.667968,0.290039 1.599609,0.290039 0.94043,0 1.599609,-0.28125 0.65918,-0.290039 1.054688,-0.8701172 0.342773,-0.5009765 0.483398,-1.1425781 0.149414,-0.6503906 0.149414,-1.6083984 v -7.9628906 h 1.740235 z M 36.615234,0 H 34.356445 L 29.979492,-5.203125 H 27.527344 V 0 h -1.740235 v -13.086914 h 3.665039 q 1.186524,0 1.977539,0.158203 0.791016,0.149414 1.423829,0.544922 0.711914,0.448242 1.107421,1.133789 0.404297,0.676758 0.404297,1.7226562 0,1.4150391 -0.711914,2.3730469 -0.711914,0.9492188 -1.959961,1.4326172 z m -4.069336,-9.4042969 q 0,-0.5625 -0.202148,-0.9931641 -0.193359,-0.439453 -0.650391,-0.738281 -0.377929,-0.254883 -0.896484,-0.351563 -0.518555,-0.105468 -1.22168,-0.105468 h -2.047851 v 4.9394527 h 1.757812 q 0.826172,0 1.441406,-0.140625 0.615235,-0.1494141 1.045899,-0.5449219 0.395508,-0.3691406 0.580078,-0.84375 0.193359,-0.4833984 0.193359,-1.2216797 z M 46.924805,0 h -8.622071 v -13.086914 h 8.622071 v 1.546875 h -6.881836 v 3.5859374 h 6.881836 v 1.546875 h -6.881836 v 4.8603516 h 6.881836 z m 19.195312,-0.94921875 q -0.483398,0.2109375 -0.878906,0.39550781 -0.386719,0.18457031 -1.019531,0.38671875 Q 63.685547,0 63.052734,0.11425781 q -0.624023,0.12304688 -1.379882,0.12304688 -1.423829,0 -2.592774,-0.39550781 Q 57.919922,-0.5625 57.058594,-1.4150391 56.214844,-2.25 55.740234,-3.5332031 q -0.474609,-1.2919922 -0.474609,-2.9970703 0,-1.6171875 0.457031,-2.8916016 0.457031,-1.274414 1.31836,-2.15332 0.834961,-0.852539 2.012695,-1.300782 1.186523,-0.448242 2.62793,-0.448242 1.054687,0 2.100586,0.254883 1.054687,0.254883 2.33789,0.896484 v 2.06543 h -0.131836 q -1.081054,-0.905273 -2.144531,-1.318359 -1.063477,-0.413086 -2.276367,-0.413086 -0.993164,0 -1.792969,0.325195 -0.791016,0.316406 -1.415039,0.993164 -0.606445,0.6591799 -0.949219,1.6699221 -0.333984,1.0019531 -0.333984,2.3203125 0,1.3798828 0.36914,2.3730468 0.37793,0.9931641 0.966797,1.6171875 0.615235,0.6503907 1.432618,0.9667969 0.826171,0.3076172 1.740234,0.3076172 1.256836,0 2.355469,-0.4306641 1.098632,-0.430664 2.05664,-1.2919922 h 0.123047 z M 78.09082,-3.7353516 q 0,0.7646485 -0.360351,1.5117188 -0.351563,0.7470703 -0.993164,1.26562499 -0.703125,0.5625 -1.643555,0.87890625 -0.931641,0.31640625 -2.25,0.31640625 -1.415039,0 -2.548828,-0.26367188 -1.125,-0.26367187 -2.293945,-0.78222656 V -2.9882813 h 0.123046 q 0.993164,0.8261719 2.293946,1.2744141 1.300781,0.4482422 2.443359,0.4482422 1.617188,0 2.513672,-0.6064453 0.905273,-0.6064453 0.905273,-1.6171875 0,-0.8701172 -0.430664,-1.2832031 -0.421875,-0.413086 -1.291992,-0.6416016 -0.65918,-0.1757812 -1.432617,-0.2900391 -0.764648,-0.1142578 -1.625977,-0.290039 -1.740234,-0.3691406 -2.583984,-1.256836 -0.834961,-0.8964843 -0.834961,-2.3291015 0,-1.6435549 1.388672,-2.6894529 1.388672,-1.054688 3.524414,-1.054688 1.379883,0 2.53125,0.263672 1.151367,0.263672 2.039063,0.650391 v 2.05664 H 77.44043 q -0.747071,-0.632812 -1.96875,-1.045898 -1.212891,-0.421875 -2.487305,-0.421875 -1.397461,0 -2.25,0.580078 -0.84375,0.580078 -0.84375,1.4941407 0,0.8173828 0.421875,1.2832031 0.421875,0.4658203 1.485352,0.7119141 0.5625,0.1230469 1.599609,0.2988281 1.037109,0.1757813 1.757812,0.3603516 1.458985,0.3867187 2.197266,1.1689453 0.738281,0.7822265 0.738281,2.1884765 z m 12.111328,0 q 0,0.7646485 -0.360351,1.5117188 -0.351563,0.7470703 -0.993164,1.26562499 -0.703125,0.5625 -1.643555,0.87890625 -0.931641,0.31640625 -2.25,0.31640625 -1.415039,0 -2.548828,-0.26367188 -1.125,-0.26367187 -2.293945,-0.78222656 V -2.9882813 h 0.123047 q 0.993164,0.8261719 2.293945,1.2744141 1.300781,0.4482422 2.443359,0.4482422 1.617188,0 2.513672,-0.6064453 0.905274,-0.6064453 0.905274,-1.6171875 0,-0.8701172 -0.430665,-1.2832031 -0.421875,-0.413086 -1.291992,-0.6416016 -0.659179,-0.1757812 -1.432617,-0.2900391 -0.764648,-0.1142578 -1.625976,-0.290039 -1.740235,-0.3691406 -2.583985,-1.256836 -0.834961,-0.8964843 -0.834961,-2.3291015 0,-1.6435549 1.388672,-2.6894529 1.388672,-1.054688 3.524414,-1.054688 1.379883,0 2.53125,0.263672 1.151367,0.263672 2.039063,0.650391 v 2.05664 h -0.123047 q -0.747071,-0.632812 -1.96875,-1.045898 -1.212891,-0.421875 -2.487305,-0.421875 -1.397461,0 -2.25,0.580078 -0.84375,0.580078 -0.84375,1.4941407 0,0.8173828 0.421875,1.2832031 0.421875,0.4658203 1.485352,0.7119141 0.5625,0.1230469 1.599609,0.2988281 1.037109,0.1757813 1.757813,0.3603516 1.458984,0.3867187 2.197265,1.1689453 0.738281,0.7822265 0.738281,2.1884765 z"
   id="text5"
   class="st2 st7 st8"
   style="font-size:18px;font-family:'Outfit Bold';fill:#ffffff"
   transform="matrix(1 0 0 1 579.9834 347)"
   aria-label="PURE CSS" />
<path
   d="M 11.320313,0 H 1.1074219 v -1.6171875 l 8.024414,-9.9228515 H 1.40625 v -1.546875 h 9.720703 v 1.573242 l -8.1035155,9.966797 h 8.2968755 z m 11.390624,0 h -8.62207 v -13.086914 h 8.62207 v 1.546875 h -6.881835 v 3.5859374 h 6.881835 v 1.546875 h -6.881835 v 4.8603516 h 6.881835 z M 36.298828,0 H 34.040039 L 29.663086,-5.203125 H 27.210937 V 0 h -1.740234 v -13.086914 h 3.665039 q 1.186524,0 1.977539,0.158203 0.791016,0.149414 1.423828,0.544922 0.711914,0.448242 1.107422,1.133789 0.404297,0.676758 0.404297,1.7226562 0,1.4150391 -0.711914,2.3730469 -0.711914,0.9492188 -1.959961,1.4326172 z m -4.069336,-9.4042969 q 0,-0.5625 -0.202148,-0.9931641 -0.19336,-0.439453 -0.650391,-0.738281 -0.37793,-0.254883 -0.896484,-0.351563 -0.518555,-0.105468 -1.22168,-0.105468 h -2.047852 v 4.9394527 h 1.757813 q 0.826172,0 1.441406,-0.140625 0.615235,-0.1494141 1.045899,-0.5449219 0.395507,-0.3691406 0.580078,-0.84375 0.193359,-0.4833984 0.193359,-1.2216797 z m 15.512695,-2.1796871 q 0.799805,0.878906 1.22168,2.1533199 0.430664,1.2744141 0.430664,2.8916016 0,1.6171875 -0.439453,2.9003906 -0.430664,1.2744141 -1.212891,2.1269532 -0.808593,0.88769526 -1.916015,1.33593745 -1.098633,0.44824219 -2.513672,0.44824219 -1.379883,0 -2.513672,-0.45703125 -1.125,-0.45703125 -1.916016,-1.32714839 -0.791015,-0.8701172 -1.221679,-2.1357422 -0.421875,-1.265625 -0.421875,-2.8916016 0,-1.5996094 0.421875,-2.8652344 0.421875,-1.2744141 1.230469,-2.1796871 0.773437,-0.861329 1.916015,-1.31836 1.151367,-0.457031 2.504883,-0.457031 1.40625,0 2.522461,0.46582 1.125,0.457032 1.907226,1.309571 z m -0.158203,5.0449215 q 0,-2.5488281 -1.142578,-3.9287105 -1.142578,-1.388672 -3.120117,-1.388672 -1.995117,0 -3.137695,1.388672 -1.133789,1.3798824 -1.133789,3.9287105 0,2.5751953 1.160156,3.9462891 1.160156,1.3623047 3.111328,1.3623047 1.951172,0 3.102539,-1.3623047 1.160156,-1.3710938 1.160156,-3.9462891 z m 15.697266,3.1376953 q 0,1.7226563 -1.054688,2.65429689 -1.045898,0.93164062 -2.8125,0.93164062 -0.421875,0 -1.125,-0.0791016 -0.703125,-0.0703125 -1.177734,-0.17578125 v -1.6259766 h 0.09668 q 0.360351,0.1230469 0.887695,0.2548829 0.527344,0.1318359 1.081055,0.1318359 0.808594,0 1.283203,-0.1845703 0.483398,-0.1845703 0.711914,-0.5273438 0.237305,-0.3515625 0.298828,-0.8613281 0.07031,-0.5097656 0.07031,-1.1777344 v -7.6376951 h -2.768555 v -1.388672 h 4.508789 z m 12.893555,-0.3339844 q 0,0.7646485 -0.360352,1.5117188 -0.351562,0.7470703 -0.993164,1.26562499 -0.703125,0.5625 -1.643555,0.87890625 -0.93164,0.31640625 -2.25,0.31640625 -1.415039,0 -2.548828,-0.26367188 -1.125,-0.26367187 -2.293945,-0.78222656 V -2.9882813 h 0.123047 q 0.993164,0.8261719 2.293945,1.2744141 1.300781,0.4482422 2.443359,0.4482422 1.617188,0 2.513672,-0.6064453 0.905274,-0.6064453 0.905274,-1.6171875 0,-0.8701172 -0.430664,-1.2832031 -0.421875,-0.413086 -1.291992,-0.6416016 -0.65918,-0.1757812 -1.432618,-0.2900391 -0.764648,-0.1142578 -1.625976,-0.290039 -1.740235,-0.3691406 -2.583985,-1.256836 -0.834961,-0.8964843 -0.834961,-2.3291015 0,-1.6435549 1.388672,-2.6894529 1.388672,-1.054688 3.524414,-1.054688 1.379883,0 2.53125,0.263672 1.151368,0.263672 2.039063,0.650391 v 2.05664 h -0.123047 q -0.74707,-0.632812 -1.96875,-1.045898 -1.212891,-0.421875 -2.487305,-0.421875 -1.397461,0 -2.25,0.580078 -0.84375,0.580078 -0.84375,1.4941407 0,0.8173828 0.421875,1.2832031 0.421875,0.4658203 1.485352,0.7119141 0.5625,0.1230469 1.599609,0.2988281 1.03711,0.1757813 1.757813,0.3603516 1.458984,0.3867187 2.197265,1.1689453 0.738282,0.7822265 0.738282,2.1884765 z"
   id="text6"
   class="st2 st7 st8"
   style="font-size:18px;font-family:'Outfit Bold';fill:#ffffff"
   transform="matrix(1 0 0 1 754.0427 347)"
   aria-label="ZERO JS" />
<path
   d="M 13.412109,0 H 11.671875 V -11.276367 L 8.0332031,-3.6035156 H 6.9960937 L 3.3837891,-11.276367 V 0 H 1.7578125 v -13.086914 h 2.3730469 l 3.4892578,7.2861328 3.3749998,-7.2861328 h 2.416992 z M 27.246094,0 H 25.391602 L 24.108398,-3.6474609 H 18.448242 L 17.165039,0 h -1.766601 l 4.763671,-13.086914 h 2.320313 z M 23.572266,-5.1416016 21.27832,-11.566406 18.975586,-5.1416016 Z M 39.216797,-13.086914 34.699219,-6.6181641 39.208008,0 H 37.195312 L 33.626953,-5.3876953 29.970703,0 h -1.898437 l 4.561523,-6.5390625 -4.456055,-6.5478515 h 2.003907 l 3.524414,5.3173828 3.603515,-5.3173828 z m 17.235351,3.9550781 q 0,0.8701171 -0.307617,1.6171875 -0.298828,0.7382812 -0.84375,1.2832031 -0.676758,0.6767578 -1.599609,1.0195312 -0.922852,0.3339844 -2.329102,0.3339844 H 49.631836 V 0 h -1.740234 v -13.086914 h 3.550781 q 1.177734,0 1.995117,0.202148 0.817383,0.19336 1.450195,0.615235 0.747071,0.500976 1.151367,1.248047 0.413086,0.74707 0.413086,1.8896481 z m -1.810546,0.043945 q 0,-0.6767578 -0.237305,-1.1777344 -0.237305,-0.500977 -0.720703,-0.817383 -0.421875,-0.272461 -0.966797,-0.386719 -0.536133,-0.123046 -1.362305,-0.123046 h -1.722656 v 5.2294918 h 1.467773 q 1.054688,0 1.713868,-0.1845704 0.659179,-0.1933593 1.072265,-0.6064453 0.413086,-0.421875 0.580078,-0.8876953 0.175782,-0.4658203 0.175782,-1.0458984 z M 67.368164,0 h -8.62207 v -13.086914 h 8.62207 v 1.546875 h -6.881836 v 3.5859374 h 6.881836 v 1.546875 h -6.881836 v 4.8603516 h 6.881836 z M 80.956055,0 H 78.697266 L 74.320312,-5.203125 H 71.868164 V 0 H 70.12793 v -13.086914 h 3.665039 q 1.186523,0 1.977539,0.158203 0.791015,0.149414 1.423828,0.544922 0.711914,0.448242 1.107422,1.133789 0.404297,0.676758 0.404297,1.7226562 0,1.4150391 -0.711914,2.3730469 -0.711914,0.9492188 -1.959961,1.4326172 z m -4.069336,-9.4042969 q 0,-0.5625 -0.202149,-0.9931641 -0.193359,-0.439453 -0.65039,-0.738281 -0.37793,-0.254883 -0.896485,-0.351563 -0.518554,-0.105468 -1.221679,-0.105468 h -2.047852 v 4.9394527 h 1.757813 q 0.826171,0 1.441406,-0.140625 0.615234,-0.1494141 1.045898,-0.5449219 0.395508,-0.3691406 0.580078,-0.84375 0.19336,-0.4833984 0.19336,-1.2216797 z m 14.115234,-2.1357421 h -6.618164 v 3.6914062 h 5.686523 v 1.546875 H 84.383789 V 0 h -1.740234 v -13.086914 h 8.358398 z m 11.742187,-0.04394 q 0.79981,0.878906 1.22168,2.1533199 0.43066,1.2744141 0.43066,2.8916016 0,1.6171875 -0.43945,2.9003906 -0.43066,1.2744141 -1.21289,2.1269532 -0.80859,0.88769526 -1.91601,1.33593745 -1.098638,0.44824219 -2.513677,0.44824219 -1.379883,0 -2.513672,-0.45703125 -1.125,-0.45703125 -1.916015,-1.32714839 -0.791016,-0.8701172 -1.22168,-2.1357422 -0.421875,-1.265625 -0.421875,-2.8916016 0,-1.5996094 0.421875,-2.8652344 0.421875,-1.2744141 1.230469,-2.1796871 0.773437,-0.861329 1.916015,-1.31836 1.151367,-0.457031 2.504883,-0.457031 1.40625,0 2.522457,0.46582 1.125,0.457032 1.90723,1.309571 z m -0.1582,5.0449215 q 0,-2.5488281 -1.14258,-3.9287105 -1.14258,-1.388672 -3.120118,-1.388672 -1.995117,0 -3.137695,1.388672 -1.133789,1.3798824 -1.133789,3.9287105 0,2.5751953 1.160156,3.9462891 1.160156,1.3623047 3.111328,1.3623047 1.951168,0 3.102538,-1.3623047 1.16016,-1.3710938 1.16016,-3.9462891 z M 117.98438,0 h -2.25879 l -4.37696,-5.203125 h -2.45215 V 0 h -1.74023 v -13.086914 h 3.66504 q 1.18652,0 1.97754,0.158203 0.79101,0.149414 1.42383,0.544922 0.71191,0.448242 1.10742,1.133789 0.4043,0.676758 0.4043,1.7226562 0,1.4150391 -0.71192,2.3730469 -0.71191,0.9492188 -1.95996,1.4326172 z m -4.06934,-9.4042969 q 0,-0.5625 -0.20215,-0.9931641 -0.19336,-0.439453 -0.65039,-0.738281 -0.37793,-0.254883 -0.89648,-0.351563 -0.51856,-0.105468 -1.22168,-0.105468 h -2.04786 v 4.9394527 h 1.75782 q 0.82617,0 1.4414,-0.140625 0.61524,-0.1494141 1.0459,-0.5449219 0.39551,-0.3691406 0.58008,-0.84375 0.19336,-0.4833984 0.19336,-1.2216797 z M 131.32617,0 h -1.74023 v -11.276367 l -3.63867,7.6728514 h -1.03711 l -3.61231,-7.6728514 V 0 h -1.62597 v -13.086914 h 2.37304 l 3.48926,7.2861328 3.375,-7.2861328 h 2.41699 z m 13.83399,0 h -1.8545 l -1.2832,-3.6474609 H 136.3623 L 135.0791,0 h -1.7666 l 4.76367,-13.086914 h 2.32031 z m -3.67383,-5.1416016 -2.29395,-6.4248044 -2.30273,6.4248044 z M 157.13086,0 h -2.15332 l -6.20508,-11.707031 V 0 h -1.62598 v -13.086914 h 2.69825 l 5.66015,10.6874999 V -13.086914 h 1.62598 z m 13.58789,-0.94921875 q -0.4834,0.2109375 -0.87891,0.39550781 -0.38672,0.18457031 -1.01953,0.38671875 -0.53613,0.16699219 -1.16894,0.28125 -0.62403,0.12304688 -1.37989,0.12304688 -1.42382,0 -2.59277,-0.39550781 Q 162.51855,-0.5625 161.65723,-1.4150391 160.81348,-2.25 160.33887,-3.5332031 q -0.47461,-1.2919922 -0.47461,-2.9970703 0,-1.6171875 0.45703,-2.8916016 0.45703,-1.274414 1.31836,-2.15332 0.83496,-0.852539 2.01269,-1.300782 1.18653,-0.448242 2.62793,-0.448242 1.05469,0 2.10059,0.254883 1.05469,0.254883 2.33789,0.896484 v 2.06543 h -0.13184 q -1.08105,-0.905273 -2.14453,-1.318359 -1.06347,-0.413086 -2.27636,-0.413086 -0.99317,0 -1.79297,0.325195 -0.79102,0.316406 -1.41504,0.993164 -0.60645,0.6591799 -0.94922,1.6699221 -0.33399,1.0019531 -0.33399,2.3203125 0,1.3798828 0.36915,2.3730468 0.37792,0.9931641 0.96679,1.6171875 0.61524,0.6503907 1.43262,0.9667969 0.82617,0.3076172 1.74023,0.3076172 1.25684,0 2.35547,-0.4306641 1.09864,-0.430664 2.05664,-1.2919922 h 0.12305 z M 181.80176,0 h -8.62207 v -13.086914 h 8.62207 v 1.546875 h -6.88184 v 3.5859374 h 6.88184 v 1.546875 h -6.88184 v 4.8603516 h 6.88184 z"
   id="text7"
   class="st2 st7 st8"
   style="font-size:18px;font-family:'Outfit Bold';fill:#ffffff"
   transform="matrix(1 0 0 1 904.9844 347)"
   aria-label="MAX PERFORMANCE" />
<path
   class="st2"
   d="M340.2,154H190.8c-11.7,0-21.3,9.6-21.3,21.3v117.3c0,11.7,9.6,21.3,21.3,21.3h149.3c11.7,0,21.3-9.6,21.3-21.3  V175.3C361.5,163.6,351.9,154,340.2,154z M186.6,175.3c0-2.5,1.5-5.3,4.3-5.3h149.3c3.2,0,5.3,2.1,5.3,5.3v117.3  c0,3.2-2.1,5.3-5.3,5.3H190.8c-3.2,0-5.3-2.1-5.3-5.3L186.6,175.3z"
   id="path7" />
<path
   id="circle7"
   class="st2"
   style="fill:#ffffff"
   d="m 273.5,338 a 8,8 0 0 1 -8,8 8,8 0 0 1 -8,-8 8,8 0 0 1 8,-8 8,8 0 0 1 8,8 z" />
<path
   id="circle8"
   class="st2"
   style="fill:#ffffff"
   d="m 241.5,338 a 8,8 0 0 1 -8,8 8,8 0 0 1 -8,-8 8,8 0 0 1 8,-8 8,8 0 0 1 8,8 z" />
<path
   id="circle9"
   class="st2"
   style="fill:#ffffff"
   d="m 305.5,338 a 8,8 0 0 1 -8,8 8,8 0 0 1 -8,-8 8,8 0 0 1 8,-8 8,8 0 0 1 8,8 z" />
<path
   id="circle10"
   class="st2"
   style="fill:#ffffff"
   d="M 382.8,234 A 29.299999,29.299999 0 0 1 353.5,263.3 29.299999,29.299999 0 0 1 324.2,234 29.299999,29.299999 0 0 1 353.5,204.7 29.299999,29.299999 0 0 1 382.8,234 Z" />
<path
   class="st0"
   d="M364.7,232.1c1,1,1,2.6,0,3.6l-12.8,12.8c-1,1-2.6,1-3.6,0s-1-2.6,0-3.6l11-11l-11-11c-1-1-1-2.6,0-3.6  s2.6-1,3.6,0L364.7,232.1L364.7,232.1z"
   id="path10" />
<path
   id="circle11"
   class="st2"
   style="fill:#ffffff"
   d="M 206.8,234 A 29.299999,29.299999 0 0 1 177.5,263.3 29.299999,29.299999 0 0 1 148.2,234 29.299999,29.299999 0 0 1 177.5,204.7 29.299999,29.299999 0 0 1 206.8,234 Z" />
<path
   class="st0"
   d="M168,232.8c-1,1-1,2.6,0,3.6l12.8,12.8c1,1,2.6,1,3.6,0s1-2.6,0-3.6l-11-11l11-11c1-1,1-2.6,0-3.6s-2.6-1-3.6,0  L168,232.8L168,232.8z"
   id="path11" />
</svg>
