<?xml version="1.0" encoding="utf-8"?>
<!-- Generator: Adobe Illustrator 24.0.2, SVG Export Plug-In . SVG Version: 6.00 Build 0)  -->
<svg version="1.1" xmlns="http://www.w3.org/2000/svg" xmlns:xlink="http://www.w3.org/1999/xlink" x="0px" y="0px"
	 viewBox="0 0 1544 500" style="enable-background:new 0 0 1544 500;" xml:space="preserve">
<style type="text/css">
	.st0{fill:#0073AA;}
	.st1{fill:#1E1E1E;}
	.st2{fill:#FFFFFF;}
	.st3{font-family:'Outfit-SemiBold';}
	.st4{font-size:72px;}
	.st5{font-family:'Outfit-Light';}
	.st6{font-size:32px;}
	.st7{font-family:'Outfit-Bold';}
	.st8{font-size:18px;}
</style>
<rect class="st0" width="1544" height="500"/>
<path class="st1" d="M683.3,360H570c-11,0-20-9-20-20l0,0c0-11,9-20,20-20h113.3c11,0,20,9,20,20l0,0C703.3,351,694.4,360,683.3,360
	z"/>
<path class="st1" d="M837.4,360h-89.2c-11,0-20-9-20-20l0,0c0-11,9-20,20-20h89.2c11,0,20,9,20,20l0,0
	C857.4,351,848.5,360,837.4,360z"/>
<path class="st1" d="M1112.3,360h-211c-11,0-20-9-20-20l0,0c0-11,9-20,20-20h211c11,0,20,9,20,20l0,0
	C1132.3,351,1123.3,360,1112.3,360z"/>
<text transform="matrix(1 0 0 1 550 220)" class="st2 st3 st4">Native Blocks Carousel</text>
<text transform="matrix(1 0 0 1 550 280)" class="st2 st5 st6">Transform any block into a responsive carousel</text>
<text transform="matrix(1 0 0 1 581.9834 347)" class="st2 st7 st8">PURE CSS</text>
<text transform="matrix(1 0 0 1 755.0427 347)" class="st2 st7 st8">ZERO JS</text>
<text transform="matrix(1 0 0 1 909.9844 347)" class="st2 st7 st8">MAX PERFORMANCE</text>
<path id="path7" class="st2" d="M352.1,154H202.7c-11.7,0-21.3,9.6-21.3,21.3v117.3c0,11.7,9.6,21.3,21.3,21.3H352
	c11.7,0,21.3-9.6,21.3-21.3V175.3C373.4,163.6,363.8,154,352.1,154z M198.5,175.3c0-2.5,1.5-5.3,4.3-5.3h149.3
	c3.2,0,5.3,2.1,5.3,5.3v117.3c0,3.2-2.1,5.3-5.3,5.3H202.7c-3.2,0-5.3-2.1-5.3-5.3L198.5,175.3z"/>
<path id="circle7" class="st2" d="M285.4,338c0,4.4-3.6,8-8,8s-8-3.6-8-8s3.6-8,8-8S285.4,333.6,285.4,338z"/>
<path id="circle8" class="st2" d="M253.4,338c0,4.4-3.6,8-8,8s-8-3.6-8-8s3.6-8,8-8S253.4,333.6,253.4,338z"/>
<path id="circle9" class="st2" d="M317.4,338c0,4.4-3.6,8-8,8s-8-3.6-8-8s3.6-8,8-8S317.4,333.6,317.4,338z"/>
<path id="circle10" class="st2" d="M394.7,234c0,16.2-13.1,29.3-29.3,29.3s-29.3-13.1-29.3-29.3s13.1-29.3,29.3-29.3
	S394.7,217.8,394.7,234z"/>
<path id="path10" class="st0" d="M376.6,232.1c1,1,1,2.6,0,3.6l-12.8,12.8c-1,1-2.6,1-3.6,0s-1-2.6,0-3.6l11-11l-11-11
	c-1-1-1-2.6,0-3.6s2.6-1,3.6,0L376.6,232.1L376.6,232.1z"/>
<path id="circle11" class="st2" d="M218.7,234c0,16.2-13.1,29.3-29.3,29.3s-29.3-13.1-29.3-29.3s13.1-29.3,29.3-29.3c0,0,0,0,0,0
	C205.6,204.7,218.7,217.8,218.7,234L218.7,234z"/>
<path id="path11" class="st0" d="M179.9,232.8c-1,1-1,2.6,0,3.6l12.8,12.8c1,1,2.6,1,3.6,0s1-2.6,0-3.6l-11-11l11-11
	c1-1,1-2.6,0-3.6s-2.6-1-3.6,0L179.9,232.8L179.9,232.8z"/>
</svg>
