<?xml version="1.0" encoding="utf-8"?>
<!-- Generator: Adobe Illustrator 24.0.2, SVG Export Plug-In . SVG Version: 6.00 Build 0)  -->
<svg version="1.1" focusable="false" xmlns="http://www.w3.org/2000/svg" xmlns:xlink="http://www.w3.org/1999/xlink" x="0px"
	 y="0px" viewBox="0 0 256 256" style="enable-background:new 0 0 256 256;" xml:space="preserve">
<style type="text/css">
	.st0{fill:#0073AA;}
	.st1{fill:#FFFFFF;}
</style>
<rect class="st0" width="256" height="256"/>
<path class="st1" d="M202.7,32H53.3C41.6,32,32,41.6,32,53.3v117.3c0,11.7,9.6,21.3,21.3,21.3h149.3c11.7,0,21.3-9.6,21.3-21.3V53.3
	C224,41.6,214.4,32,202.7,32z M49.1,53.3c0-2.5,1.5-5.3,4.3-5.3h149.3c3.2,0,5.3,2.1,5.3,5.3v117.3c0,3.2-2.1,5.3-5.3,5.3H53.3
	c-3.2,0-5.3-2.1-5.3-5.3L49.1,53.3z"/>
<circle class="st1" cx="128" cy="216" r="8"/>
<circle class="st1" cx="96" cy="216" r="8"/>
<circle class="st1" cx="160" cy="216" r="8"/>
<circle class="st1" cx="216" cy="112" r="29.3"/>
<path class="st0" d="M227.2,110.1c1,1,1,2.6,0,3.6l-12.8,12.8c-1,1-2.6,1-3.6,0s-1-2.6,0-3.6l11-11l-11-11c-1-1-1-2.6,0-3.6
	s2.6-1,3.6,0L227.2,110.1L227.2,110.1z"/>
<circle class="st1" cx="40" cy="112" r="29.3"/>
<path class="st0" d="M30.5,110.8c-1,1-1,2.6,0,3.6l12.8,12.8c1,1,2.6,1,3.6,0s1-2.6,0-3.6l-11-11l11-11c1-1,1-2.6,0-3.6
	s-2.6-1-3.6,0L30.5,110.8L30.5,110.8z"/>
</svg>
