<?xml version="1.0" encoding="utf-8"?>
<!-- Generator: Adobe Illustrator 24.0.2, SVG Export Plug-In . SVG Version: 6.00 Build 0)  -->
<svg version="1.1" focusable="false" xmlns="http://www.w3.org/2000/svg" xmlns:xlink="http://www.w3.org/1999/xlink" x="0px"
	 y="0px" viewBox="0 0 256 256" style="enable-background:new 0 0 256 256;" xml:space="preserve">
<style type="text/css">
	.st0{fill:url(#SVGID_1_);}
	.st1{fill:#FFFFFF;}
	.st2{fill:url(#SVGID_2_);}
	.st3{fill:url(#SVGID_3_);}
</style>
<linearGradient id="SVGID_1_" gradientUnits="userSpaceOnUse" x1="-382.8385" y1="640.1475" x2="-382.4996" y2="639.8085" gradientTransform="matrix(1544 0 0 -500 590969 320117)">
	<stop  offset="0" style="stop-color:#0073AA"/>
	<stop  offset="1" style="stop-color:#005177"/>
</linearGradient>
<rect fill="#0073AA" width="256" height="256"/>
<path class="st1" d="M202.7,32H53.3C41.6,32,32,41.6,32,53.3v117.3c0,11.7,9.6,21.3,21.3,21.3h149.3c11.7,0,21.3-9.6,21.3-21.3V53.3
	C224,41.6,214.4,32,202.7,32z M49.1,53.3c0-2.5,1.5-5.3,4.3-5.3h149.3c3.2,0,5.3,2.1,5.3,5.3v117.3c0,3.2-2.1,5.3-5.3,5.3H53.3
	c-3.2,0-5.3-2.1-5.3-5.3L49.1,53.3z"/>
<circle class="st1" cx="128" cy="216" r="8"/>
<circle class="st1" cx="96" cy="216" r="8"/>
<circle class="st1" cx="160" cy="216" r="8"/>
<circle class="st1" cx="216" cy="112" r="29.3"/>
<linearGradient id="SVGID_2_" gradientUnits="userSpaceOnUse" x1="205.6227" y1="111.9608" x2="229.5713" y2="111.9608">
	<stop  offset="0" style="stop-color:#0073AA"/>
	<stop  offset="1" style="stop-color:#005177"/>
</linearGradient>
<path fill="#0073AA" d="M229.1,113L212,130.2c-0.3,0.3-0.6,0.4-1,0.4c-0.4,0-0.7-0.1-1-0.4l-3.8-3.8c-0.3-0.3-0.4-0.6-0.4-1
	c0-0.4,0.2-0.7,0.4-1l12.3-12.3l-12.3-12.3c-0.3-0.3-0.4-0.6-0.4-1c0-0.4,0.2-0.7,0.4-1l3.8-3.8c0.3-0.3,0.6-0.4,1-0.4
	c0.4,0,0.8,0.1,1,0.4l17.1,17.1c0.3,0.3,0.4,0.6,0.4,1C229.6,112.4,229.4,112.7,229.1,113z"/>
<circle class="st1" cx="40" cy="112" r="29.3"/>
<linearGradient id="SVGID_3_" gradientUnits="userSpaceOnUse" x1="26.3783" y1="112.0392" x2="50.4277" y2="112.0392">
	<stop  offset="0" style="stop-color:#0073AA"/>
	<stop  offset="1" style="stop-color:#005177"/>
</linearGradient>
<path fill="#0073AA" d="M26.8,111L44,93.8c0.3-0.3,0.6-0.4,1.1-0.4c0.4,0,0.7,0.1,1,0.4l3.9,3.9c0.3,0.3,0.4,0.6,0.4,1
	c0,0.4-0.2,0.7-0.4,1L37.7,112L50,124.4c0.3,0.3,0.4,0.6,0.4,1c0,0.4-0.2,0.7-0.4,1l-3.9,3.9c-0.3,0.3-0.6,0.4-1,0.4
	c-0.4,0-0.8-0.1-1.1-0.4l-17.2-17.2c-0.3-0.3-0.4-0.6-0.4-1C26.4,111.6,26.5,111.3,26.8,111z"/>
</svg>
